<svg width="31" height="22" viewBox="0 0 31 22" fill="none" xmlns="http://www.w3.org/2000/svg">
<path id="Vector" d="M10.1923 21.6266C10.5785 22.0129 11.2032 22.0177 11.5954 21.6376L11.7899 21.449C12.1908 21.0604 12.1958 20.4187 11.801 20.0239L3.92689 12.1498H29.4192C29.9715 12.1498 30.4192 11.702 30.4192 11.1498V10.8806C30.4192 10.3283 29.9715 9.88061 29.4192 9.88061H3.92689L11.8318 1.9757C12.2266 1.58087 12.2216 0.939212 11.8207 0.550575L11.6262 0.362043C11.234 -0.0181411 10.6093 -0.0132826 10.223 0.372956L0.287945 10.3081C-0.102577 10.6986 -0.102577 11.3318 0.287947 11.7223L10.1923 21.6266Z" fill="#42BFA6"/>
</svg>
